# xmcd
#
# Track frame offsets: 
#        180
#        20422
#        39806
#        58896
#        79660
#        97403
#        117165
#        135188
#        156080
#        182489
#        202252
#
# Disc length: 3000 seconds
#
# Revision: 0
# Processed by: cddbd v1.5.2PL0 Copyright (c) Steve Scherf et al.
# Submitted via: ExactAudioCopyFreeDBPlugin 1.0
#
DISCID=8d0bb60b
DTITLE=Rollinger - Easy Money Blues
DYEAR=1994
DGENRE=Blues
TTITLE0=Help Me
TTITLE1=6345789
TTITLE2=Hands To Yourself
TTITLE3=Trouble On My Own
TTITLE4=Barefooden
TTITLE5=Cincinnati Jail
TTITLE6=Sweet Emma
TTITLE7=I'm Ready
TTITLE8=Light My Fire
TTITLE9=Easy Money
TTITLE10=I'll Be Your Lover Too
EXTD=
EXTT0=
EXTT1=
EXTT2=
EXTT3=
EXTT4=
EXTT5=
EXTT6=
EXTT7=
EXTT8=
EXTT9=
EXTT10=
PLAYORDER=
